<mxfile host="app.diagrams.net" modified="2023-06-30T14:03:25.305Z" agent="Mozilla/5.0 (Macintosh; Intel Mac OS X 10_15_7) AppleWebKit/537.36 (KHTML, like Gecko) Chrome/111.0.0.0 Safari/537.36" version="21.5.2" etag="-NXrQfeV31HuFS9axzQU" type="github">
  <diagram name="Page-1" id="ZvFrD7qEp3GO8TMWyem1">
    <mxGraphModel>
      <root>
        <mxCell id="0" />
        <mxCell id="1" parent="0" />
      </root>
    </mxGraphModel>
  </diagram>
</mxfile>
